<svg width="117" height="20" viewBox="0 0 117 20" fill="none" xmlns="http://www.w3.org/2000/svg">
<g clip-path="url(#clip0_204_502)">
<path fill-rule="evenodd" clip-rule="evenodd" d="M11.9603 0.953857C10.1018 0.953857 8.59524 2.46043 8.59524 4.31891C8.59524 6.17736 10.1018 7.68395 11.9603 7.68395C13.8188 7.68395 15.3253 6.17736 15.3253 4.31891C15.3253 2.46043 13.8188 0.953857 11.9603 0.953857ZM5.38086 7.50035C8.88367 7.50035 11.7233 10.3399 11.7233 13.8428V19.041H8.56855V13.8428C8.56855 13.4697 8.50449 13.1118 8.38675 12.7791L3.75287 17.4129L1.52214 15.1821L5.99086 10.7133C5.79342 10.6751 5.58947 10.6551 5.38086 10.6551H0.182617V7.50035H5.38086ZM18.6183 7.50035C15.1155 7.50035 12.2757 10.3399 12.2757 13.8428V19.041H15.4305V13.8428C15.4305 13.5505 15.4698 13.2676 15.5434 12.9986L20.3908 17.8459L22.6216 15.6154L17.7742 10.768C18.0431 10.6944 18.3261 10.6551 18.6183 10.6551H23.8164V7.50035H18.6183Z" fill="#2D88FF"/>
<path d="M28.8643 19.2234V1.09033H33.9998L39.5058 16.6292H39.9029V1.09033H42.8412V19.2234H37.8117L32.1732 3.65808H31.8026V19.2234H28.8643Z" fill="white"/>
<path d="M54.6124 16.8404L55.3536 16.7609L55.4066 18.9051C53.3947 19.311 51.6123 19.5139 50.0593 19.5139C48.1004 19.5139 46.6886 18.9757 45.824 17.8992C44.9768 16.8228 44.5532 15.102 44.5532 12.7371C44.5532 8.04292 46.4679 5.6958 50.2976 5.6958C54.0035 5.6958 55.8567 7.7165 55.8567 11.7577L55.6714 13.8226H47.4651C47.4827 14.9166 47.721 15.7196 48.1799 16.2316C48.6386 16.7433 49.4946 16.9992 50.7476 16.9992C52.0005 16.9992 53.2889 16.9462 54.6124 16.8404ZM53.0241 11.5989C53.0241 10.293 52.8123 9.38417 52.3887 8.87241C51.9831 8.34296 51.2858 8.07824 50.2976 8.07824C49.3093 8.07824 48.5858 8.35178 48.1269 8.89885C47.6857 9.44593 47.4562 10.346 47.4387 11.5989H53.0241Z" fill="white"/>
<path d="M64.4286 8.44894H60.7753V14.2727C60.7753 15.3491 60.8548 16.064 61.0136 16.4169C61.1724 16.7698 61.5783 16.9462 62.2313 16.9462L64.4019 16.867L64.5341 19.1699C63.3517 19.3994 62.4517 19.514 61.8342 19.514C60.3342 19.514 59.3018 19.1699 58.7371 18.4816C58.1899 17.7934 57.9165 16.4962 57.9165 14.5903V8.44894H56.2222V5.98706H57.9165V2.14868H60.7753V5.98706H64.4286V8.44894Z" fill="white"/>
<path d="M64.4395 5.98804H67.2717L69.3628 16.7619H69.8922L72.4072 6.25274H75.3723L77.8867 16.7619H78.4161L80.4812 5.98804H83.3401L80.5339 19.2239H75.9545L73.8895 10.1441L71.825 19.2239H67.2456L64.4395 5.98804Z" fill="white"/>
<path d="M85.1815 7.41646C86.0995 6.26936 87.6171 5.6958 89.7349 5.6958C91.8527 5.6958 93.3616 6.26936 94.2616 7.41646C95.179 8.56355 95.6377 10.2842 95.6377 12.5784C95.6377 14.8727 95.197 16.6021 94.3144 17.7668C93.4318 18.9316 91.9055 19.5139 89.7349 19.5139C87.5644 19.5139 86.0375 18.9316 85.1555 17.7668C84.2729 16.6021 83.8315 14.8727 83.8315 12.5784C83.8315 10.2842 84.2815 8.56355 85.1815 7.41646ZM87.3521 16.0198C87.758 16.7256 88.5525 17.0785 89.7349 17.0785C90.9173 17.0785 91.7112 16.7256 92.1171 16.0198C92.5231 15.3137 92.726 14.1578 92.726 12.5519C92.726 10.9461 92.5057 9.80773 92.0644 9.13713C91.6404 8.46648 90.864 8.13118 89.7349 8.13118C88.6053 8.13118 87.8201 8.46648 87.3788 9.13713C86.9555 9.80773 86.7438 10.9461 86.7438 12.5519C86.7438 14.1578 86.9468 15.3137 87.3521 16.0198Z" fill="white"/>
<path d="M97.1807 19.2228V5.987H100.04V7.57529C101.539 6.60466 103.039 5.97817 104.54 5.6958V8.58118C103.022 8.88122 101.725 9.26947 100.648 9.74597L100.066 9.98419V19.2228H97.1807Z" fill="white"/>
<path d="M108.307 19.2231H105.422V0.481201H108.307V11.3081L109.949 11.1493L113.072 5.98729H116.302L112.49 12.1815L116.514 19.2231H113.257L110.028 13.6376L108.307 13.8229V19.2231Z" fill="white"/>
</g>
<defs>
<clipPath id="clip0_204_502">
<rect width="116.69" height="19.8621" fill="white" transform="translate(0 0.0688477)"/>
</clipPath>
</defs>
</svg>
