<svg width="90" height="26" viewBox="0 0 90 26" fill="none" xmlns="http://www.w3.org/2000/svg">
<g clip-path="url(#clip0_204_511)">
<path d="M11.6796 25.3751H3.71729L11.6796 13.3345H19.642L11.6796 25.3751Z" fill="white"/>
<path d="M8.7664 0.905762H16.9229L8.7664 13.3347H0.609863L8.7664 0.905762Z" fill="white"/>
<path d="M35.8856 11.3798C35.8856 12.1181 35.7075 12.8104 35.3515 13.4566C35.0087 14.1026 34.4615 14.6234 33.71 15.0191C32.9715 15.4145 32.0354 15.6124 30.9015 15.6124H28.5873V20.9129H25.8184V7.10767H30.9015C31.9695 7.10767 32.8792 7.29226 33.6307 7.66151C34.3825 8.03069 34.9427 8.53829 35.3121 9.18443C35.6945 9.83051 35.8856 10.5623 35.8856 11.3798ZM30.7826 13.3774C31.5475 13.3774 32.1144 13.2061 32.4838 12.8631C32.8529 12.5072 33.0375 12.0127 33.0375 11.3798C33.0375 10.0349 32.2859 9.36245 30.7826 9.36245H28.5873V13.3774H30.7826Z" fill="white"/>
<path d="M39.8294 11.657C40.1855 11.0768 40.6469 10.6219 41.2138 10.2924C41.7941 9.96271 42.4533 9.79785 43.1918 9.79785V12.7052H42.4599C41.5897 12.7052 40.9305 12.9096 40.4821 13.3185C40.0471 13.7273 39.8294 14.4392 39.8294 15.4545V20.9132H37.0605V9.95607H39.8294V11.657Z" fill="white"/>
<path d="M49.131 21.0915C48.0761 21.0915 47.1268 20.8608 46.2829 20.3994C45.4392 19.9247 44.7732 19.2587 44.2854 18.4016C43.8107 17.5445 43.5732 16.5558 43.5732 15.4349C43.5732 14.3143 43.8172 13.3253 44.3052 12.4682C44.8062 11.6111 45.4853 10.9518 46.3424 10.4903C47.1994 10.0157 48.1554 9.77832 49.2103 9.77832C50.265 9.77832 51.2209 10.0157 52.078 10.4903C52.935 10.9518 53.6076 11.6111 54.0955 12.4682C54.5966 13.3253 54.8471 14.3143 54.8471 15.4349C54.8471 16.5558 54.5898 17.5445 54.0757 18.4016C53.5745 19.2587 52.8889 19.9247 52.0188 20.3994C51.1617 20.8608 50.199 21.0915 49.131 21.0915ZM49.131 18.6785C49.632 18.6785 50.1002 18.5598 50.5353 18.3226C50.9837 18.0721 51.3397 17.7027 51.6033 17.215C51.8671 16.7271 51.999 16.1337 51.999 15.4349C51.999 14.3933 51.7222 13.5956 51.1682 13.0417C50.6276 12.4747 49.9618 12.1913 49.1707 12.1913C48.3796 12.1913 47.7136 12.4747 47.1731 13.0417C46.6455 13.5956 46.382 14.3933 46.382 15.4349C46.382 16.4766 46.639 17.281 47.1533 17.8479C47.6807 18.4016 48.3399 18.6785 49.131 18.6785Z" fill="white"/>
<path d="M58.8558 18.7182H61.8295V20.9136H56.0869V5.40747H58.8558V18.7182Z" fill="white"/>
<path d="M63.9775 8.65114C63.4897 8.65114 63.0806 8.49951 62.7511 8.19624C62.4351 7.87975 62.2769 7.49077 62.2769 7.02928C62.2769 6.5678 62.4351 6.18542 62.7511 5.88216C63.0806 5.5657 63.4897 5.40747 63.9775 5.40747C64.4654 5.40747 64.8676 5.5657 65.1842 5.88216C65.5138 6.18542 65.6782 6.5678 65.6782 7.02928C65.6782 7.49077 65.5138 7.87975 65.1842 8.19624C64.8676 8.49951 64.4654 8.65114 63.9775 8.65114ZM65.3424 9.95652V20.9136H62.5735V9.95652H65.3424Z" fill="white"/>
<path d="M73.3587 9.79785C74.664 9.79785 75.7192 10.2132 76.5236 11.0439C77.328 11.8614 77.7302 13.0086 77.7302 14.4853V20.9132H74.9607V14.8612C74.9607 13.9908 74.7435 13.325 74.3084 12.8634C73.8733 12.3887 73.2799 12.1515 72.5282 12.1515C71.7635 12.1515 71.1571 12.3887 70.7084 12.8634C70.2732 13.325 70.056 13.9908 70.056 14.8612V20.9132H67.2871V9.95607H70.056V11.3208C70.4253 10.8461 70.8933 10.4769 71.46 10.2132C72.0404 9.93633 72.6728 9.79785 73.3587 9.79785Z" fill="white"/>
<path d="M89.7579 15.1977C89.7579 15.5931 89.7312 15.9492 89.6785 16.2656H81.6685C81.7343 17.0568 82.0111 17.6764 82.499 18.1248C82.9868 18.5731 83.587 18.7973 84.299 18.7973C85.3275 18.7973 86.0592 18.3554 86.4943 17.4721H89.4811C89.1646 18.527 88.5581 19.3972 87.6612 20.0829C86.765 20.7552 85.6639 21.0915 84.3579 21.0915C83.3034 21.0915 82.3543 20.8608 81.5102 20.3994C80.6797 19.9247 80.0268 19.2587 79.5519 18.4016C79.0908 17.5445 78.8599 16.5558 78.8599 15.4349C78.8599 14.301 79.0908 13.3055 79.5519 12.4483C80.0137 11.5914 80.6599 10.9321 81.4903 10.4705C82.3208 10.009 83.2773 9.77832 84.3579 9.77832C85.4001 9.77832 86.3299 10.0025 87.1473 10.4508C87.9778 10.8991 88.6171 11.5386 89.0659 12.3694C89.527 13.1868 89.7579 14.1295 89.7579 15.1977ZM86.8897 14.4066C86.8767 13.6944 86.6197 13.1274 86.1182 12.7054C85.6173 12.2703 85.0041 12.0529 84.2791 12.0529C83.5939 12.0529 83.0135 12.2638 82.5387 12.6858C82.0775 13.0945 81.7939 13.6681 81.6883 14.4066H86.8897Z" fill="white"/>
</g>
<defs>
<clipPath id="clip0_204_511">
<rect width="90" height="24.8276" fill="white" transform="translate(0 0.586182)"/>
</clipPath>
</defs>
</svg>
