<svg width="126" height="36" viewBox="0 0 126 36" fill="none" xmlns="http://www.w3.org/2000/svg">
<path d="M24.0727 18C21.8631 20.5317 18.652 22.125 15.0781 22.125C11.5042 22.125 8.2931 20.5317 6.0835 18C8.2931 15.4683 11.5042 13.875 15.0781 13.875C18.652 13.875 21.8631 15.4683 24.0727 18Z" fill="white"/>
<path fill-rule="evenodd" clip-rule="evenodd" d="M3.01074 26.25C3.01074 19.4155 8.41346 13.875 15.078 13.875C11.5041 13.875 8.29309 15.4683 6.08348 18C8.29309 20.5317 11.5041 22.125 15.078 22.125C18.652 22.125 21.863 20.5317 24.0726 18C25.9834 20.1894 27.1453 23.0806 27.1453 26.25V30.925C27.1453 31.5325 26.6651 32.0249 26.0727 32.0249H4.08339C3.49098 32.0249 3.01074 31.5325 3.01074 30.925V26.25Z" fill="#7CD4FD"/>
<path fill-rule="evenodd" clip-rule="evenodd" d="M10.5518 21.2252C8.8287 20.5097 7.30345 19.3979 6.08348 18.0001C8.29309 15.4684 11.5041 13.8751 15.078 13.8751C18.652 13.8751 21.863 15.4684 24.0726 18.0001C25.9834 15.8108 27.1453 12.9196 27.1453 9.75017V5.0751C27.1453 4.46759 26.6651 3.9751 26.0727 3.9751H4.08339C3.49098 3.9751 3.01074 4.46758 3.01074 5.0751V9.75017C3.01074 14.9432 6.1299 19.3891 10.5518 21.2252Z" fill="#0BA5EC"/>
<path d="M45.9941 11.9158V24.375H43.5573V19.0736H38.3529V24.375H35.916V11.9158H38.3529V17.0387H43.5573V11.9158H45.9941Z" fill="white"/>
<path d="M52.6747 24.5356C51.7465 24.5356 50.9109 24.3274 50.1683 23.9109C49.4256 23.4825 48.8397 22.8816 48.4103 22.108C47.9925 21.3345 47.7837 20.442 47.7837 19.4305C47.7837 18.419 47.9983 17.5266 48.4276 16.753C48.8686 15.9795 49.4662 15.3846 50.2205 14.968C50.9748 14.5396 51.816 14.3254 52.7444 14.3254C53.6727 14.3254 54.5141 14.5396 55.2683 14.968C56.0226 15.3846 56.6144 15.9795 57.0437 16.753C57.4847 17.5266 57.7052 18.419 57.7052 19.4305C57.7052 20.442 57.4789 21.3345 57.0263 22.108C56.5853 22.8816 55.982 23.4825 55.2161 23.9109C54.4618 24.3274 53.6147 24.5356 52.6747 24.5356ZM52.6747 22.3579C53.1157 22.3579 53.5277 22.2508 53.9106 22.0366C54.3052 21.8106 54.6185 21.4773 54.8506 21.037C55.0826 20.5967 55.1987 20.0612 55.1987 19.4305C55.1987 18.4905 54.955 17.7705 54.4676 17.2707C53.9919 16.7589 53.4058 16.5031 52.7096 16.5031C52.0133 16.5031 51.4273 16.7589 50.9516 17.2707C50.4874 17.7705 50.2554 18.4905 50.2554 19.4305C50.2554 20.3706 50.4816 21.0965 50.9341 21.6082C51.3984 22.108 51.9785 22.3579 52.6747 22.3579Z" fill="white"/>
<path d="M68.5957 14.4861V24.3749H66.1415V23.1255C65.8281 23.5539 65.4162 23.893 64.9056 24.1429C64.4067 24.381 63.8613 24.4999 63.2694 24.4999C62.5152 24.4999 61.848 24.3393 61.2677 24.018C60.6875 23.6848 60.2291 23.2029 59.8926 22.5721C59.5677 21.9295 59.4053 21.168 59.4053 20.2873V14.4861H61.8421V19.9303C61.8421 20.7157 62.0336 21.3226 62.4166 21.751C62.7995 22.1675 63.3217 22.3758 63.9831 22.3758C64.6561 22.3758 65.1842 22.1675 65.567 21.751C65.95 21.3226 66.1415 20.7157 66.1415 19.9303V14.4861H68.5957Z" fill="white"/>
<path d="M73.4374 16.0211C73.7507 15.4976 74.1569 15.087 74.6558 14.7895C75.1664 14.492 75.7466 14.3433 76.3964 14.3433V16.9672H75.7524C74.9866 16.9672 74.4064 17.1517 74.0118 17.5205C73.6288 17.8894 73.4374 18.532 73.4374 19.4483V24.3749H71.0005V14.4861H73.4374V16.0211Z" fill="white"/>
<path d="M81.8149 14.3254C82.5343 14.3254 83.1667 14.4742 83.7121 14.7717C84.2575 15.0572 84.6869 15.4321 85.0002 15.8962V14.4861H87.4545V24.4464C87.4545 25.3627 87.2746 26.1778 86.9149 26.8918C86.5551 27.6177 86.0156 28.1889 85.2961 28.6054C84.5767 29.0338 83.7064 29.248 82.6852 29.248C81.3159 29.248 80.1903 28.9207 79.3084 28.2663C78.4381 27.6118 77.9449 26.7192 77.8288 25.5888H80.2483C80.376 26.041 80.6487 26.3979 81.0664 26.6598C81.4958 26.9334 82.0121 27.0703 82.6156 27.0703C83.3234 27.0703 83.8978 26.8502 84.3388 26.4098C84.7797 25.9814 85.0002 25.327 85.0002 24.4464V22.9113C84.6869 23.3754 84.2518 23.7621 83.6947 24.0715C83.1493 24.381 82.5228 24.5356 81.8149 24.5356C81.0026 24.5356 80.2599 24.3214 79.5869 23.893C78.9139 23.4646 78.3801 22.8636 77.9855 22.0902C77.6026 21.3048 77.4111 20.4063 77.4111 19.3948C77.4111 18.3952 77.6026 17.5086 77.9855 16.7352C78.3801 15.9616 78.908 15.3666 79.5695 14.9501C80.2425 14.5337 80.991 14.3254 81.8149 14.3254ZM85.0002 19.4305C85.0002 18.8236 84.8842 18.306 84.6521 17.8776C84.42 17.4373 84.1067 17.1041 83.7121 16.8779C83.3177 16.64 82.894 16.521 82.4415 16.521C81.989 16.521 81.5712 16.634 81.1883 16.8601C80.8053 17.0862 80.492 17.4195 80.2483 17.8597C80.0163 18.2881 79.9002 18.7998 79.9002 19.3948C79.9002 19.9899 80.0163 20.5134 80.2483 20.9656C80.492 21.4059 80.8053 21.745 81.1883 21.9831C81.5828 22.221 82.0005 22.34 82.4415 22.34C82.894 22.34 83.3177 22.227 83.7121 22.0009C84.1067 21.7629 84.42 21.4297 84.6521 21.0013C84.8842 20.561 85.0002 20.0374 85.0002 19.4305Z" fill="white"/>
<path d="M92.2711 11.166V24.375H89.8345V11.166H92.2711Z" fill="white"/>
<path d="M94.0522 19.3948C94.0522 18.3952 94.2439 17.5086 94.6264 16.7352C95.0215 15.9616 95.5489 15.3666 96.2104 14.9501C96.8836 14.5337 97.6325 14.3254 98.456 14.3254C99.176 14.3254 99.8023 14.4742 100.336 14.7717C100.881 15.0692 101.316 15.444 101.641 15.8962V14.4861H104.095V24.3749H101.641V22.9291C101.328 23.3932 100.893 23.7799 100.336 24.0894C99.7906 24.3869 99.1579 24.5356 98.4388 24.5356C97.6261 24.5356 96.8836 24.3214 96.2104 23.893C95.5489 23.4646 95.0215 22.8636 94.6264 22.0902C94.2439 21.3048 94.0522 20.4063 94.0522 19.3948ZM101.641 19.4305C101.641 18.8236 101.526 18.306 101.294 17.8776C101.061 17.4373 100.748 17.1041 100.353 16.8779C99.9589 16.64 99.535 16.521 99.0824 16.521C98.6305 16.521 98.212 16.634 97.8295 16.8601C97.447 17.0862 97.1329 17.4195 96.8899 17.8597C96.6577 18.2881 96.5416 18.7998 96.5416 19.3948C96.5416 19.9899 96.6577 20.5134 96.8899 20.9656C97.1329 21.4059 97.447 21.745 97.8295 21.9831C98.2237 22.221 98.6423 22.34 99.0824 22.34C99.535 22.34 99.9589 22.227 100.353 22.0009C100.748 21.7629 101.061 21.4297 101.294 21.0013C101.526 20.561 101.641 20.0374 101.641 19.4305Z" fill="white"/>
<path d="M110.166 24.5356C109.376 24.5356 108.669 24.3928 108.043 24.1072C107.415 23.8097 106.917 23.411 106.545 22.9113C106.186 22.4115 105.988 21.8581 105.954 21.2512H108.408C108.454 21.632 108.634 21.9474 108.947 22.1973C109.272 22.4471 109.672 22.5721 110.149 22.5721C110.612 22.5721 110.972 22.4769 111.228 22.2865C111.494 22.0961 111.628 21.8521 111.628 21.5547C111.628 21.2334 111.465 20.9953 111.14 20.8406C110.827 20.674 110.322 20.4956 109.627 20.3051C108.907 20.1267 108.315 19.9422 107.851 19.7518C107.398 19.5615 107.004 19.2699 106.667 18.8772C106.342 18.4844 106.18 17.955 106.18 17.2885C106.18 16.7411 106.331 16.2414 106.632 15.7891C106.945 15.337 107.386 14.9799 107.955 14.7181C108.536 14.4563 109.214 14.3254 109.992 14.3254C111.14 14.3254 112.057 14.6229 112.741 15.2179C113.426 15.801 113.803 16.5924 113.874 17.592H111.541C111.506 17.1992 111.344 16.8899 111.053 16.6637C110.775 16.4258 110.398 16.3068 109.922 16.3068C109.481 16.3068 109.139 16.39 108.895 16.5566C108.663 16.7233 108.547 16.9553 108.547 17.2528C108.547 17.586 108.709 17.8418 109.034 18.0204C109.359 18.187 109.864 18.3595 110.549 18.538C111.245 18.7165 111.819 18.9009 112.272 19.0914C112.724 19.2817 113.113 19.5793 113.438 19.9838C113.775 20.3766 113.948 20.9002 113.96 21.5547C113.96 22.1258 113.803 22.6376 113.49 23.0897C113.189 23.542 112.748 23.899 112.167 24.1607C111.598 24.4107 110.932 24.5356 110.166 24.5356Z" fill="white"/>
<path d="M119.651 24.5356C118.862 24.5356 118.154 24.3928 117.527 24.1072C116.901 23.8097 116.402 23.411 116.03 22.9113C115.67 22.4115 115.473 21.8581 115.439 21.2512H117.893C117.939 21.632 118.119 21.9474 118.432 22.1973C118.757 22.4471 119.158 22.5721 119.634 22.5721C120.097 22.5721 120.457 22.4769 120.713 22.2865C120.979 22.0961 121.113 21.8521 121.113 21.5547C121.113 21.2334 120.951 20.9953 120.626 20.8406C120.312 20.674 119.808 20.4956 119.111 20.3051C118.392 20.1267 117.8 19.9422 117.336 19.7518C116.883 19.5615 116.488 19.2699 116.153 18.8772C115.828 18.4844 115.665 17.955 115.665 17.2885C115.665 16.7411 115.816 16.2414 116.118 15.7891C116.431 15.337 116.872 14.9799 117.441 14.7181C118.02 14.4563 118.7 14.3254 119.477 14.3254C120.626 14.3254 121.543 14.6229 122.227 15.2179C122.912 15.801 123.289 16.5924 123.358 17.592H121.026C120.991 17.1992 120.829 16.8899 120.538 16.6637C120.26 16.4258 119.883 16.3068 119.407 16.3068C118.966 16.3068 118.624 16.39 118.38 16.5566C118.148 16.7233 118.032 16.9553 118.032 17.2528C118.032 17.586 118.195 17.8418 118.52 18.0204C118.845 18.187 119.349 18.3595 120.033 18.538C120.73 18.7165 121.304 18.9009 121.757 19.0914C122.21 19.2817 122.598 19.5793 122.923 19.9838C123.26 20.3766 123.434 20.9002 123.445 21.5547C123.445 22.1258 123.289 22.6376 122.976 23.0897C122.674 23.542 122.233 23.899 121.653 24.1607C121.084 24.4107 120.417 24.5356 119.651 24.5356Z" fill="white"/>
</svg>
