<svg width="100" height="100" viewBox="0 0 100 100" fill="none" xmlns="http://www.w3.org/2000/svg">
<g id="Fav Icon">
<rect width="100" height="100" rx="6" fill="white"/>
<path id="Vector" d="M29.1514 29.1547C31.5902 26.7158 31.5902 22.7456 29.1514 20.3066C26.7126 17.8677 22.7425 17.8677 20.3037 20.3066C17.8649 22.7456 17.8649 26.7158 20.3037 29.1547C22.7425 31.5936 26.7126 31.5936 29.1514 29.1547ZM70.8435 70.8488C68.4046 73.2877 68.4046 77.2579 70.8435 79.6968C73.2823 82.1358 77.2523 82.1358 79.6911 79.6968C82.1299 77.2579 82.1299 73.2877 79.6911 70.8488C77.2523 68.4098 73.2823 68.4098 70.8435 70.8488ZM53.0893 19.69C53.1066 19.6796 53.1274 19.6657 53.0893 19.69V19.69ZM63.2776 41.093L73.6183 30.7518C75.7142 31.3234 78.056 30.7934 79.7015 29.1478C82.3066 26.5425 82.1265 22.1843 79.1646 19.8216C76.847 17.9716 73.459 18.0409 71.2107 19.9706C69.288 21.6196 68.6437 24.1417 69.2534 26.3832L57.6516 37.9855C59.6609 38.7268 61.5558 39.7696 63.2776 41.093ZM36.7277 58.9104L26.3904 69.2482C24.2945 68.6731 21.9527 69.2032 20.3037 70.8488C17.8684 73.2877 17.8684 77.2614 20.3037 79.6968C22.7425 82.1358 26.716 82.1358 29.1514 79.6968C30.8004 78.0513 31.3269 75.7128 30.7553 73.6134L42.3536 62.0145C40.3443 61.2697 38.4494 60.2234 36.7277 58.907V58.9104ZM91.9649 49.2967C91.6427 46.3485 89.2074 43.9997 86.2524 43.7675C83.72 43.5666 81.4683 44.89 80.3112 46.9167H68.5882C69.7903 48.829 70.6806 50.9077 71.2349 53.0937H80.3112C81.3886 54.9818 83.4221 56.2636 85.7431 56.2636C89.4256 56.2636 92.3737 53.066 91.9614 49.3002L91.9649 49.2967ZM19.694 53.0902H31.417C30.2149 51.1779 29.3246 49.1027 28.7703 46.9132H19.694C18.5404 44.89 16.2991 43.5666 13.7702 43.7606C10.8117 43.9858 8.36944 46.3347 8.04034 49.2829C7.6177 53.0521 10.5727 56.2567 14.2586 56.2567C16.5866 56.2567 18.6166 54.9749 19.694 53.0868V53.0902ZM53.0927 75.3594V80.3135C55.1089 81.4672 56.4322 83.7156 56.2382 86.2446C55.9992 89.1997 53.6539 91.6386 50.7059 91.9608C46.9437 92.3766 43.7427 89.4283 43.7427 85.7457C43.7427 83.5215 45.1284 81.429 46.8883 80.3204C46.8952 80.3204 46.9021 80.3135 46.9125 80.3135V63.1647C47.9275 63.3102 48.9599 63.3864 49.9957 63.3864C51.0315 63.3864 52.0742 63.3102 53.0893 63.1717V69.0196C54.8214 68.5103 56.4115 67.5714 57.7209 66.2584C59.2764 64.7133 60.2983 62.7871 60.714 60.6946C60.7452 60.5248 60.7764 60.3482 60.8006 60.1784C60.8318 59.9948 60.8561 59.8181 60.8699 59.631C60.8838 59.4544 60.908 59.2603 60.915 59.0941C60.9219 58.9 60.9288 58.7095 60.9288 58.5155C60.9288 58.3769 60.9219 58.2383 60.9219 58.0998C60.9046 57.8088 60.8838 57.4831 60.8457 57.199C60.5062 54.2993 59.0131 51.7357 56.8445 49.9896C55.6147 49.0057 54.1666 48.2747 52.5835 47.8902C51.8698 47.7204 51.1216 47.6269 50.3664 47.6061C50.0199 47.6096 49.2266 47.6234 48.565 47.4433L48.1354 47.3359C47.4183 47.1142 46.7497 46.7504 46.1504 46.2758C44.9656 45.3231 44.1896 43.9997 43.9437 42.5134C45.8525 41.7963 47.8964 41.4221 49.9992 41.4221C52.3756 41.4221 54.6759 41.9002 56.7925 42.8148C58.0604 43.3622 59.2625 44.0689 60.378 44.9212C60.9773 45.382 61.5455 45.8843 62.0997 46.4282C65.3319 49.6605 67.109 53.9529 67.109 58.5294C67.109 63.1058 65.3319 67.3913 62.0997 70.6236C59.6089 73.118 56.4842 74.7393 53.0927 75.3559V75.3594ZM46.9125 24.6406V19.6865C44.8963 18.5328 43.573 16.2845 43.767 13.7554C44.006 10.8003 46.3513 8.36137 49.2994 8.03918C53.0615 7.62345 56.2625 10.5717 56.2625 14.2543C56.2625 16.4785 54.8768 18.571 53.117 19.6796C53.11 19.6796 53.1031 19.6865 53.0927 19.6865V36.8353C52.0777 36.6898 51.0454 36.6136 50.0095 36.6136C48.9737 36.6136 47.931 36.6898 46.916 36.8283V30.9804C45.1839 31.4897 43.5938 32.4286 42.2843 33.7416C40.7289 35.2867 39.7069 37.2129 39.2912 39.3054C39.26 39.4752 39.2288 39.6518 39.2046 39.8216C39.1734 40.0052 39.1492 40.1819 39.1353 40.369C39.1215 40.5457 39.0972 40.7397 39.0903 40.9059C39.0833 41.1 39.0764 41.2905 39.0764 41.4845C39.0764 41.6231 39.0834 41.7617 39.0834 41.9002C39.1007 42.1912 39.1215 42.5169 39.1596 42.801C39.4991 45.7007 40.9921 48.2643 43.1608 50.0104C44.3906 50.9943 45.8386 51.7253 47.4218 52.1098C48.1354 52.2796 48.8837 52.3731 49.6389 52.3939C49.9853 52.3904 50.7786 52.3766 51.4403 52.5567L51.8698 52.6641C52.5869 52.8858 53.2555 53.2496 53.8549 53.7242C55.0396 54.6769 55.8156 56.0003 56.0616 57.4866C54.1528 58.2037 52.1089 58.5779 50.0061 58.5779C47.6296 58.5779 45.3294 58.0998 43.2127 57.1852C41.9448 56.6378 40.7427 55.9311 39.6272 55.0788C39.0279 54.618 38.4598 54.1157 37.9055 53.5718C34.6734 50.3395 32.8962 46.0471 32.8962 41.4706C32.8962 36.8942 34.6734 32.6087 37.9055 29.3764C40.3963 26.8821 43.521 25.2607 46.9125 24.644V24.6406Z" fill="#0043FF"/>
</g>
</svg>
