<svg width="194" height="74" viewBox="0 0 194 74" fill="none" xmlns="http://www.w3.org/2000/svg">
<path d="M61.8364 39.8401H65.0465C65.0465 41.2265 66.0852 42.5639 68.7642 42.5639C71.1658 42.5639 72.3667 41.4548 72.3667 40.0236C72.3667 38.8462 71.3749 38.0847 69.2505 37.8992L67.7724 37.784C64.541 37.5067 62.4614 35.683 62.4614 32.8207C62.4614 29.6341 64.8865 27.6035 68.5786 27.6035C72.2707 27.6035 74.7897 29.7279 74.7897 33.0062H71.5796C71.5796 31.6433 70.5878 30.4211 68.5786 30.4211C66.5694 30.4211 65.6693 31.5302 65.6693 32.8228C65.6693 33.8615 66.386 34.7382 68.071 34.8768L69.5491 35.0154C73.1516 35.3162 75.5746 37.0481 75.5746 40.0257C75.5746 43.2357 72.9191 45.3815 68.7642 45.3815C64.285 45.3815 61.8386 43.0502 61.8386 39.8401H61.8364Z" fill="#FAFDFF"/>
<path d="M78.3237 44.942V32.4047H80.864V35.4761C81.3717 33.213 82.7581 32.0122 84.9507 32.0122H85.0894C87.0986 32.0122 88.3911 32.9827 89.014 34.8511C89.6368 32.9806 90.9528 32.0122 92.9386 32.0122H93.0772C95.963 32.0122 97.4646 34.0214 97.4646 37.7839V44.9399H94.2546V37.4832C94.2546 35.9133 93.4227 34.8981 91.9467 34.8981C90.4708 34.8981 89.5003 35.9368 89.5003 37.577V44.942H86.2902V37.4853C86.2902 35.9155 85.4584 34.9002 83.9824 34.9002C82.5064 34.9002 81.5359 35.9389 81.5359 37.5791V44.9441H78.3259L78.3237 44.942Z" fill="#FAFDFF"/>
<path d="M99.9136 41.2243C99.9136 38.4771 102.061 37.208 105.408 37.208H107.97V37.0928C107.97 35.6616 107.255 34.9449 105.8 34.9449C104.647 34.9449 102.614 35.0132 101.321 35.107V32.3833C102.384 32.2916 103.977 32.2212 105.222 32.2212C109.079 32.2212 111.041 33.6758 111.041 37.1611V44.942H108.501V42.5403C107.946 44.317 106.585 45.264 104.461 45.264C101.714 45.264 99.9136 43.7859 99.9136 41.2243ZM107.972 40.3007V39.1233H105.363C103.909 39.1233 103.077 39.9083 103.077 41.0622C103.077 42.2161 103.885 42.9775 105.363 42.9775C106.679 42.9775 107.88 42.3547 107.972 40.2986V40.3007Z" fill="#FAFDFF"/>
<path d="M114.014 44.9421V32.4048H116.554V36.4915C116.877 33.6973 118.425 32.2427 121.034 32.2427H121.494V35.0368H120.618C118.449 35.0368 117.224 36.2377 117.224 38.4068V44.94H114.014V44.9421Z" fill="#FAFDFF"/>
<path d="M129.839 45.1042C126.375 45.1042 124.76 43.9034 124.76 40.2326V34.7616H122.774V32.4069H124.784V28.8748H127.785V32.4069H131.641V34.7616H127.761V40.4416C127.761 41.6659 128.454 42.357 129.677 42.357H131.639V45.1042H129.839Z" fill="#FAFDFF"/>
<path d="M133.972 49.8819V47.1347H136.327C137.643 47.1347 138.312 46.6953 138.658 45.3559L138.841 44.6627H136.787L132.724 32.4026H135.956L139.003 42.1223H139.488L142.028 32.4026H145.099L141.382 46.0469C140.62 48.8411 139.119 49.8798 136.026 49.8798H133.972V49.8819Z" fill="#FAFDFF"/>
<path d="M146.58 36.724V36.2163C146.58 32.0827 149.557 27.6057 155.491 27.6057C161.425 27.6057 164.379 32.0849 164.379 36.2163V36.724C164.379 40.4865 161.561 45.3815 155.491 45.3815C149.421 45.3815 146.58 40.4865 146.58 36.724ZM161.056 36.4936C161.056 33.1449 158.908 30.6537 155.491 30.6537C152.074 30.6537 149.905 33.1471 149.905 36.4936C149.905 39.6568 152.029 42.3357 155.491 42.3357C158.953 42.3357 161.056 39.6568 161.056 36.4936Z" fill="#FAFDFF"/>
<path d="M167.293 49.5598V32.4047H169.833V35.5443C170.618 33.1896 172.465 32.0122 174.749 32.0122C178.282 32.0122 180.613 34.8063 180.613 38.4067V38.8909C180.613 42.4934 178.35 45.3558 174.749 45.3558C173.017 45.3558 171.471 44.7095 170.501 43.2783V49.5577H167.291L167.293 49.5598ZM177.405 38.6627C177.405 36.3079 176.021 34.7146 173.941 34.7146C172.047 34.7146 170.409 36.0306 170.409 38.2937V39.2172C170.409 41.3864 172.141 42.6576 173.941 42.6576C175.995 42.6576 177.405 41.0174 177.405 38.6627Z" fill="#FAFDFF"/>
<path d="M182.394 41.203H185.279C185.348 42.0797 186.18 42.9115 188.027 42.9115C189.55 42.9115 190.543 42.3122 190.543 41.3651C190.543 40.5333 189.944 40.0491 188.257 39.887L187.15 39.7718C184.332 39.4711 182.786 38.1337 182.786 35.9859C182.786 33.4242 184.887 32.0378 187.843 32.0378C190.799 32.0378 192.992 33.4221 193.084 36.0328H190.198C190.13 35.1562 189.345 34.463 187.82 34.463C186.457 34.463 185.695 35.041 185.695 35.8707C185.695 36.6556 186.25 37.0716 187.611 37.2337L188.718 37.3488C191.65 37.6496 193.451 39.0104 193.451 41.25C193.451 43.7199 191.281 45.3366 187.98 45.3366C184.516 45.3366 182.485 43.7903 182.394 41.203Z" fill="#FAFDFF"/>
<path d="M13.5708 24.4362C15.0723 22.9346 15.0723 20.4903 13.5708 18.9887C12.0692 17.4871 9.62483 17.4871 8.12325 18.9887C6.62167 20.4903 6.62167 22.9346 8.12325 24.4362C9.62483 25.9378 12.0692 25.9378 13.5708 24.4362ZM39.2405 50.106C37.739 51.6076 37.739 54.0519 39.2405 55.5535C40.7421 57.0551 43.1865 57.0551 44.688 55.5535C46.1896 54.0519 46.1896 51.6076 44.688 50.106C43.1865 48.6044 40.7421 48.6044 39.2405 50.106ZM28.3093 18.609C28.3199 18.6026 28.3327 18.5941 28.3093 18.609V18.609ZM34.5822 31.7863L40.949 25.4195C42.2394 25.7714 43.6813 25.4451 44.6944 24.4319C46.2984 22.828 46.1875 20.1447 44.3638 18.6901C42.9369 17.5511 40.8509 17.5937 39.4666 18.7818C38.2829 19.7971 37.8861 21.3498 38.2615 22.7298L31.1183 29.873C32.3554 30.3295 33.5222 30.9715 34.5822 31.7863ZM18.2355 42.7559L11.8708 49.1206C10.5804 48.7665 9.13853 49.0928 8.12325 50.106C6.6238 51.6076 6.6238 54.054 8.12325 55.5535C9.62483 57.0551 12.0713 57.0551 13.5708 55.5535C14.586 54.5403 14.9102 53.1006 14.5583 51.8081L21.6993 44.667C20.4622 44.2084 19.2955 43.5643 18.2355 42.7538V42.7559ZM52.245 36.837C52.0466 35.0219 50.5472 33.5758 48.7278 33.4329C47.1686 33.3092 45.7822 34.1239 45.0698 35.3717H37.852C38.5921 36.5491 39.1403 37.8288 39.4816 39.1747H45.0698C45.7332 40.3372 46.9852 41.1263 48.4143 41.1263C50.6816 41.1263 52.4967 39.1577 52.2429 36.8392L52.245 36.837ZM7.74786 39.1726H14.9657C14.2256 37.9952 13.6774 36.7176 13.3361 35.3696H7.74786C7.03759 34.1239 5.65759 33.3092 4.10055 33.4286C2.27903 33.5673 0.775315 35.0134 0.572686 36.8285C0.312469 39.1491 2.13186 41.1221 4.40129 41.1221C5.83462 41.1221 7.08452 40.3329 7.74786 39.1705V39.1726ZM28.3114 52.883V55.9331C29.5528 56.6434 30.3676 58.0277 30.2481 59.5847C30.1009 61.4041 28.657 62.9057 26.8418 63.104C24.5255 63.36 22.5546 61.5449 22.5546 59.2776C22.5546 57.9082 23.4078 56.6199 24.4913 55.9374C24.4956 55.9374 24.4999 55.9331 24.5063 55.9331V45.3751C25.1312 45.4647 25.7668 45.5116 26.4046 45.5116C27.0423 45.5116 27.6843 45.4647 28.3093 45.3794V48.9798C29.3757 48.6662 30.3548 48.0882 31.161 47.2798C32.1187 46.3286 32.7479 45.1427 33.0039 43.8544C33.0231 43.7498 33.0423 43.6411 33.0572 43.5366C33.0764 43.4235 33.0913 43.3147 33.0998 43.1996C33.1084 43.0908 33.1233 42.9713 33.1276 42.8689C33.1318 42.7495 33.1361 42.6322 33.1361 42.5128C33.1361 42.4274 33.1318 42.3421 33.1318 42.2568C33.1212 42.0776 33.1084 41.8771 33.0849 41.7022C32.8759 39.917 31.9566 38.3386 30.6214 37.2636C29.8642 36.6579 28.9726 36.2078 27.9979 35.9711C27.5585 35.8665 27.0978 35.809 26.6328 35.7962C26.4195 35.7983 25.9311 35.8068 25.5237 35.6959L25.2592 35.6298C24.8177 35.4933 24.406 35.2693 24.037 34.9771C23.3076 34.3906 22.8298 33.5758 22.6784 32.6608C23.8536 32.2192 25.112 31.9889 26.4067 31.9889C27.8699 31.9889 29.2862 32.2832 30.5894 32.8463C31.37 33.1833 32.1102 33.6184 32.797 34.1431C33.166 34.4268 33.5158 34.7361 33.857 35.071C35.8471 37.061 36.9412 39.7037 36.9412 42.5213C36.9412 45.3389 35.8471 47.9773 33.857 49.9673C32.3235 51.503 30.3996 52.5013 28.3114 52.8809V52.883ZM24.5063 21.657V18.6069C23.2649 17.8966 22.4501 16.5124 22.5696 14.9553C22.7167 13.1359 24.1607 11.6343 25.9759 11.436C28.2922 11.18 30.263 12.9952 30.263 15.2625C30.263 16.6318 29.4099 17.9201 28.3263 18.6026C28.3221 18.6026 28.3178 18.6069 28.3114 18.6069V29.1649C27.6865 29.0753 27.0509 29.0284 26.4131 29.0284C25.7754 29.0284 25.1334 29.0753 24.5084 29.1606V25.5602C23.4419 25.8738 22.4629 26.4518 21.6567 27.2602C20.699 28.2115 20.0698 29.3974 19.8138 30.6857C19.7946 30.7902 19.7754 30.899 19.7605 31.0035C19.7413 31.1165 19.7264 31.2253 19.7178 31.3405C19.7093 31.4493 19.6944 31.5687 19.6901 31.6711C19.6859 31.7905 19.6816 31.9078 19.6816 32.0273C19.6816 32.1126 19.6859 32.1979 19.6859 32.2832C19.6965 32.4624 19.7093 32.6629 19.7328 32.8378C19.9418 34.6231 20.8611 36.2014 22.1963 37.2764C22.9535 37.8822 23.8451 38.3322 24.8198 38.569C25.2592 38.6735 25.7199 38.7311 26.1849 38.7439C26.3982 38.7417 26.8866 38.7332 27.294 38.8441L27.5585 38.9102C28 39.0467 28.4117 39.2707 28.7807 39.5629C29.5101 40.1495 29.9879 40.9642 30.1393 41.8793C28.9641 42.3208 27.7057 42.5511 26.411 42.5511C24.9478 42.5511 23.5315 42.2568 22.2283 41.6937C21.4477 41.3567 20.7075 40.9216 20.0207 40.3969C19.6517 40.1132 19.3019 39.8039 18.9607 39.4691C16.9706 37.479 15.8764 34.8363 15.8764 32.0187C15.8764 29.2011 16.9706 26.5627 18.9607 24.5727C20.4942 23.037 22.4181 22.0388 24.5063 21.6591V21.657Z" fill="#FAFDFF"/>
</svg>
