<svg width="42" height="42" viewBox="0 0 42 42" fill="none" xmlns="http://www.w3.org/2000/svg">
<mask id="mask0_199_3501" style="mask-type:alpha" maskUnits="userSpaceOnUse" x="0" y="0" width="42" height="42">
<rect width="42" height="42" fill="#D9D9D9"/>
</mask>
<g mask="url(#mask0_199_3501)">
<path d="M7.53848 34.1249C6.65449 34.1249 5.90625 33.8187 5.29375 33.2062C4.68125 32.5937 4.375 31.8454 4.375 30.9614V11.0385C4.375 10.1545 4.68125 9.40625 5.29375 8.79375C5.90625 8.18125 6.65449 7.875 7.53848 7.875H34.4614C35.3454 7.875 36.0937 8.18125 36.7062 8.79375C37.3187 9.40625 37.6249 10.1545 37.6249 11.0385V30.9614C37.6249 31.8454 37.3187 32.5937 36.7062 33.2062C36.0937 33.8187 35.3454 34.1249 34.4614 34.1249H7.53848ZM21 21.6864C21.1458 21.6864 21.2905 21.6646 21.4341 21.6208C21.5777 21.5771 21.7168 21.5171 21.8514 21.4408L34.3673 13.4278C34.567 13.3044 34.7083 13.1445 34.7913 12.9482C34.8743 12.7519 34.899 12.5449 34.8653 12.3273C34.8429 11.9235 34.6455 11.6234 34.2731 11.4271C33.9006 11.2308 33.5248 11.2482 33.1457 11.4793L21 19.25L8.85426 11.4793C8.47509 11.2482 8.10211 11.2297 7.73531 11.4237C7.36848 11.6178 7.16823 11.9134 7.13457 12.3105C7.10092 12.546 7.12559 12.7648 7.2086 12.9667C7.29161 13.1686 7.43295 13.3223 7.63263 13.4278L20.1485 21.4408C20.2831 21.5171 20.4222 21.5771 20.5658 21.6208C20.7094 21.6646 20.8541 21.6864 21 21.6864Z" fill="#0043FF"/>
</g>
</svg>
